<?xml version="1.0" encoding="UTF-8"?>
<svg id="Layer_2" data-name="Layer 2" xmlns="http://www.w3.org/2000/svg" viewBox="0 0 1086.08 317.05">
  <defs>
    <style>
      .cls-1 {
        fill: #1a1a1a;
      }
    </style>
  </defs>
  <g id="Layer_1-2" data-name="Layer 1">
    <g>
      <g>
        <path class="cls-1" d="M424.55,229.38v-127.46h17.36l73.22,95.1h-4.7v-95.1h21.51v127.46h-17.18l-73.22-95.28h4.52v95.28h-21.51Z"/>
        <path class="cls-1" d="M625.96,231.19c-9.28,0-17.69-1.54-25.22-4.61-7.53-3.07-13.98-7.5-19.35-13.29-5.36-5.79-9.49-12.71-12.38-20.79-2.89-8.07-4.34-17.05-4.34-26.94s1.45-19.01,4.34-27.03c2.89-8.01,7.02-14.88,12.38-20.61,5.36-5.72,11.81-10.12,19.35-13.2,7.53-3.07,15.94-4.61,25.22-4.61s17.69,1.54,25.22,4.61c7.53,3.07,13.98,7.44,19.35,13.11,5.36,5.67,9.49,12.51,12.38,20.52,2.89,8.02,4.34,17.03,4.34,27.03s-1.45,19.05-4.34,27.12c-2.89,8.08-7.02,15.01-12.38,20.79-5.36,5.79-11.81,10.21-19.35,13.29-7.53,3.07-15.94,4.61-25.22,4.61ZM625.96,211.3c7.83,0,14.49-1.81,19.98-5.42,5.48-3.62,9.7-8.86,12.66-15.73,2.95-6.87,4.43-15.07,4.43-24.59s-1.45-17.87-4.34-24.68c-2.89-6.81-7.11-11.99-12.66-15.55-5.55-3.55-12.23-5.33-20.07-5.33s-14.35,1.78-19.89,5.33c-5.55,3.56-9.79,8.74-12.75,15.55-2.96,6.81-4.43,15.04-4.43,24.68s1.47,17.72,4.43,24.59c2.95,6.87,7.2,12.11,12.75,15.73,5.54,3.62,12.17,5.42,19.89,5.42Z"/>
        <path class="cls-1" d="M719.79,229.38v-127.46h55.32c13.98,0,24.77,3.34,32.36,10.03,7.59,6.69,11.39,16.06,11.39,28.11,0,7.84-1.72,14.58-5.15,20.25-3.44,5.67-8.41,10.01-14.92,13.02-6.51,3.01-14.4,4.52-23.68,4.52l1.63-2.71h5.97c4.94,0,9.25,1.21,12.93,3.62,3.68,2.41,6.9,6.21,9.67,11.39l21.33,39.23h-25.49l-22.06-40.68c-1.45-2.65-3.07-4.73-4.88-6.24-1.81-1.51-3.86-2.56-6.15-3.16-2.29-.6-4.94-.9-7.96-.9h-17.18v50.98h-23.14ZM742.93,161.22h28.2c8.32,0,14.61-1.72,18.89-5.15,4.28-3.43,6.42-8.59,6.42-15.46s-2.14-11.84-6.42-15.28c-4.28-3.43-10.58-5.15-18.89-5.15h-28.2v41.04Z"/>
        <path class="cls-1" d="M883.59,229.38v-108.12h-43.75v-19.35h110.65v19.35h-43.75v108.12h-23.14Z"/>
        <path class="cls-1" d="M974.17,229.38v-127.46h23.14v53.15h65.63v-53.15h23.14v127.46h-23.14v-54.96h-65.63v54.96h-23.14Z"/>
      </g>
      <path class="cls-1" d="M206.25,17.75l70.04,40.44c21.33,12.31,34.58,35.27,34.58,59.9v80.88c0,24.64-13.25,47.59-34.58,59.9l-70.04,40.44c-21.33,12.31-47.84,12.31-69.18,0l-70.03-40.44c-21.34-12.31-34.59-35.27-34.59-59.9v-80.88c0-24.64,13.26-47.59,34.59-59.9l70.03-40.44c10.67-6.16,22.63-9.24,34.59-9.24s23.91,3.09,34.58,9.24M208.39,303l70.03-40.43c22.66-13.09,36.73-37.46,36.73-63.61v-80.88c0-26.15-14.07-50.54-36.73-63.61L208.39,14.04c-22.66-13.08-50.8-13.08-73.45,0l-70.04,40.43c-22.66,13.08-36.73,37.46-36.73,63.61v80.88c0,26.16,14.07,50.53,36.73,63.61l70.04,40.43c11.33,6.54,24.03,9.81,36.73,9.81s25.4-3.27,36.73-9.81M220.78,4.28c24.64,0,47.59,13.25,59.91,34.58l49.11,85.08c12.32,21.33,12.32,47.84,0,69.17l-49.11,85.08c-12.32,21.33-35.27,34.58-59.91,34.58h-98.24c-24.64,0-47.59-13.25-59.9-34.58L13.52,193.11c-12.31-21.33-12.31-47.84,0-69.17L62.64,38.86C74.95,17.53,97.9,4.28,122.54,4.28h98.24ZM284.39,280.32l49.12-85.07c13.08-22.66,13.08-50.8,0-73.45l-49.12-85.07C271.31,14.07,246.94,0,220.78,0h-98.24c-26.15,0-50.54,14.07-63.61,36.73L9.81,121.8c-13.08,22.66-13.08,50.8,0,73.45l49.11,85.07c13.08,22.66,37.46,36.73,63.61,36.73h98.24c26.16,0,50.54-14.07,63.61-36.73M229.83,212.4l8.52,9.22h-64.17v-9.22h43.59l-43.73-47.33-1.81-1.94h-38.11v58.49h-8.56v-126.19h8.56v58.47h38.18l45.52-49.25h-43.65v-9.22h64.24l-8.53,9.22-45.51,49.25-4.3,4.66,4.23,4.56,45.53,49.27Z"/>
    </g>
  </g>
</svg>