<?xml version="1.0" encoding="UTF-8"?>
<svg id="Layer_2" data-name="Layer 2" xmlns="http://www.w3.org/2000/svg" viewBox="0 0 1092.12 191.43">
  <defs>
    <style>
      .cls-1 {
        fill: #1a1a1a;
      }
    </style>
  </defs>
  <g id="Layer_1-2" data-name="Layer 1">
    <g>
      <g>
        <path class="cls-1" d="M291.45,135.3c-7.98,0-14.72-1.5-20.21-4.5-5.49-3-9.67-7.26-12.53-12.79-2.87-5.52-4.3-12.07-4.3-19.64s1.47-14.24,4.4-19.8c2.93-5.56,7.16-9.86,12.69-12.89,5.53-3.03,12.14-4.55,19.85-4.55,3.41,0,6.67.32,9.77.97,3.1.65,5.99,1.59,8.65,2.81s4.94,2.73,6.85,4.5l-4.4,10.23c-3.21-2.52-6.48-4.33-9.82-5.42-3.34-1.09-7.03-1.64-11.05-1.64-7.64,0-13.42,2.22-17.34,6.65-3.92,4.43-5.88,10.81-5.88,19.13s2.01,14.77,6.04,19.13c4.02,4.37,9.99,6.55,17.9,6.55,2.73,0,5.49-.27,8.29-.82,2.8-.54,5.53-1.29,8.19-2.25l-2.56,5.83v-21.79h-16.57v-9.72h27.52v34.68c-2.18,1.09-4.69,2.03-7.52,2.81-2.83.79-5.78,1.4-8.85,1.84-3.07.44-6.11.67-9.11.67Z"/>
        <path class="cls-1" d="M367.16,135.3c-9.89,0-17.44-2.57-22.66-7.72-5.22-5.15-7.83-12.77-7.83-22.87v-42.56h13.1v42.46c0,6.48,1.48,11.34,4.45,14.58,2.97,3.24,7.28,4.86,12.94,4.86s9.96-1.62,12.89-4.86c2.93-3.24,4.4-8.1,4.4-14.58v-42.46h12.99v42.56c0,10.09-2.56,17.72-7.67,22.87-5.12,5.15-12.65,7.72-22.61,7.72Z"/>
        <path class="cls-1" d="M417.8,134.27V62.14h9.82l41.44,53.82h-2.66v-53.82h12.17v72.13h-9.72l-41.44-53.92h2.56v53.92h-12.17Z"/>
        <path class="cls-1" d="M491.67,134.27l32.64-72.13h10.74l32.64,72.13h-13.3l-8.7-20.26,5.53,3.58h-43.18l5.53-3.58-8.59,20.26h-13.3ZM529.52,76.37l-14.32,34.07-2.66-3.27h34.17l-2.56,3.27-14.43-34.07h-.21Z"/>
        <path class="cls-1" d="M600.53,134.27l-25.48-72.13h13.5l19.95,59.14h-4.09l20.87-59.14h9.72l20.16,59.14h-3.58l20.26-59.14h12.79l-25.68,72.13h-10.84l-19.44-55.45h2.35l-19.64,55.45h-10.84Z"/>
        <path class="cls-1" d="M691.89,134.27l32.64-72.13h10.74l32.64,72.13h-13.3l-8.7-20.26,5.53,3.58h-43.18l5.53-3.58-8.59,20.26h-13.3ZM729.74,76.37l-14.32,34.07-2.66-3.27h34.17l-2.56,3.27-14.43-34.07h-.21Z"/>
        <path class="cls-1" d="M780.9,134.27V62.14h31.31c7.91,0,14.02,1.89,18.31,5.68,4.3,3.79,6.45,9.09,6.45,15.91,0,4.43-.97,8.25-2.92,11.46-1.94,3.21-4.76,5.66-8.44,7.37-3.68,1.71-8.15,2.56-13.4,2.56l.92-1.54h3.38c2.8,0,5.23.68,7.31,2.05,2.08,1.37,3.9,3.51,5.47,6.45l12.07,22.2h-14.43l-12.48-23.02c-.82-1.5-1.74-2.68-2.76-3.53-1.02-.85-2.18-1.45-3.48-1.79-1.3-.34-2.8-.51-4.5-.51h-9.72v28.85h-13.1ZM793.99,95.7h15.96c4.71,0,8.27-.97,10.69-2.92,2.42-1.94,3.63-4.86,3.63-8.75s-1.21-6.7-3.63-8.65c-2.42-1.94-5.99-2.92-10.69-2.92h-15.96v23.22Z"/>
        <path class="cls-1" d="M856.4,134.27V62.14h10.95l27.21,50.23h-3.27l27.11-50.23h10.74v72.13h-11.87v-52.69h2.25l-22.92,41.74h-7.67l-23.12-41.84h2.46v52.79h-11.87Z"/>
        <path class="cls-1" d="M942.34,134.27l32.64-72.13h10.74l32.64,72.13h-13.3l-8.7-20.26,5.53,3.58h-43.18l5.53-3.58-8.59,20.26h-13.3ZM980.2,76.37l-14.32,34.07-2.66-3.27h34.17l-2.56,3.27-14.43-34.07h-.21Z"/>
        <path class="cls-1" d="M1031.35,134.27V62.14h9.82l41.44,53.82h-2.66v-53.82h12.17v72.13h-9.72l-41.44-53.92h2.56v53.92h-12.17Z"/>
      </g>
      <path class="cls-1" d="M124.53,10.72l42.29,24.42c12.88,7.44,20.88,21.29,20.88,36.17v48.83c0,14.87-8,28.73-20.88,36.17l-42.29,24.42c-12.88,7.43-28.89,7.43-41.77,0l-42.28-24.42c-12.88-7.43-20.89-21.29-20.89-36.17v-48.83c0-14.87,8-28.73,20.89-36.17l42.28-24.42c6.44-3.72,13.66-5.58,20.89-5.58s14.44,1.86,20.88,5.58M125.82,182.95l42.28-24.41c13.68-7.9,22.17-22.62,22.17-38.41v-48.83c0-15.79-8.5-30.51-22.17-38.41l-42.28-24.41c-13.68-7.9-30.67-7.9-44.35,0l-42.29,24.41c-13.68,7.89-22.17,22.62-22.17,38.41v48.83c0,15.79,8.5,30.51,22.17,38.41l42.29,24.41c6.84,3.95,14.51,5.92,22.18,5.92s15.34-1.97,22.17-5.92M133.3,2.58c14.87,0,28.73,8,36.17,20.88l29.65,51.37c7.44,12.88,7.44,28.88,0,41.76l-29.65,51.37c-7.44,12.88-21.3,20.88-36.17,20.88h-59.31c-14.87,0-28.73-8-36.17-20.88l-29.66-51.37c-7.43-12.88-7.43-28.89,0-41.76l29.66-51.37C45.25,10.58,59.11,2.58,73.99,2.58h59.31ZM171.71,169.25l29.66-51.36c7.9-13.68,7.9-30.67,0-44.35l-29.66-51.36c-7.89-13.68-22.61-22.17-38.41-22.17h-59.31c-15.79,0-30.51,8.49-38.41,22.17L5.92,73.54c-7.9,13.68-7.9,30.67,0,44.35l29.65,51.36c7.9,13.68,22.62,22.18,38.41,22.18h59.31c15.8,0,30.51-8.49,38.41-22.18M138.77,128.24l5.14,5.57h-38.74v-5.57h26.32l-26.4-28.57-1.09-1.17h-23.01v35.31h-5.17V57.62h5.17v35.3h23.05l27.48-29.74h-26.36v-5.57h38.78l-5.15,5.57-27.48,29.74-2.6,2.82,2.55,2.76,27.49,29.75Z"/>
    </g>
  </g>
</svg>